<?xml version="1.0" encoding="utf-8"?>
<svg xmlns="http://www.w3.org/2000/svg" height="32" width="32" viewBox="0 0 32 32">
  <g>
    <path id="path1" transform="rotate(0,16,16) translate(0,0.247002483843573) scale(0.999999523163069,0.999999523163069)  " fill="#000000" d="M15.690632,21.951877C15.653507,21.951502,15.616008,21.969502,15.575008,22.006002L12.872007,24.448001C12.210006,25.045 11.355005,25.375 10.464005,25.375 9.4000045,25.375 8.3980042,24.908 7.7140037,24.094001L5.9220029,21.962002 3.0830015,24.855 2.9990033,24.930081 2.9990033,29.50601 28.999004,29.50601 28.999004,24.50601C28.999004,24.47151,29.000754,24.437416,29.004171,24.403812L29.012361,24.350186 26.184013,22.145002C25.856012,21.891002,25.634011,22.033002,25.477012,22.197002L23.446012,24.325001C22.762012,25.043 21.83801,25.438 20.847011,25.438 19.92201,25.438 19.044009,25.087 18.373008,24.45L15.804008,22.008002C15.764507,21.971002,15.727758,21.952252,15.690632,21.951877z M2.170001,16.506006C2.0760009,16.506006,2.000001,16.583005,2.000001,16.677005L2.000001,23.113001 4.6020023,20.544003C5.3760024,19.777004,6.7530032,19.842003,7.4530035,20.675003L9.2450048,22.807001C9.8030044,23.470001,10.888005,23.546001,11.531005,22.963002L14.234007,20.522003C14.633007,20.161003 15.150007,19.962003 15.688007,19.962004 16.246008,19.962003 16.776008,20.174003 17.181008,20.558003L19.75101,23.000001C20.367009,23.586001,21.413011,23.559001,21.999011,22.944002L24.030011,20.816003C24.891011,19.914003,26.428012,19.799003,27.413013,20.568003L30.000014,22.584002 30.000014,16.677005C30.000014,16.583005,29.923015,16.506006,29.829015,16.506006z M14.999004,7.5950212L14.999004,14.506007 16.999004,14.506007 16.999004,7.5950212z M14.499004,6.5950203L17.499004,6.5950203C17.775003,6.5950203,17.999004,6.8190212,17.999004,7.0950203L17.999004,14.506007 29.829015,14.506007C31.026015,14.506007,32.000014,15.480006,32.000014,16.677005L32.000014,23.023002C32.000014,23.520001 31.802014,23.980001 31.444015,24.318001 31.318015,24.436876 31.177671,24.535782 31.027202,24.612979L30.999004,24.625803 30.999004,30.50601C30.999004,31.058012,30.551005,31.50601,29.999004,31.50601L1.9990039,31.50601C1.4470016,31.50601,0.99900353,31.058012,0.99900338,30.50601L0.99900338,25.183126 0.95080752,25.15992C0.38474238,24.852614,0,24.253501,0,23.566001L0,16.677005C0,15.480006,0.97300045,14.506007,2.170001,14.506007L13.999004,14.506007 13.999004,7.0950203C13.999004,6.8190212,14.223004,6.5950203,14.499004,6.5950203z M15.904117,0C15.721127,1.6960049 17.638017,2.857008 17.741012,4.3700123 17.741012,5.1170139 16.962056,5.7220154 16.001111,5.7220154 15.040166,5.7220154 14.261211,5.1170139 14.261211,4.3700123 14.209214,3.2460079 14.79218,1.123003 15.904117,0z" />
  </g>
</svg>

