<?xml version="1.0" encoding="utf-8"?>
<svg xmlns="http://www.w3.org/2000/svg" height="32" width="32" viewBox="0 0 32 32">
  <g>
    <path id="path1" transform="rotate(0,16,16) translate(0,5.5) scale(1,1)  " fill="#000000" d="M26.5,2.3999996C27.9,2.3999996 29.1,3.8000002 29.1,5.6000004 29.1,7.1000004 28.4,8.1000004 27.299999,8.6999998 27.2,8.6999998 27,8.8999996 27,9.1000004 27,9.3000002 27.2,9.5 27.299999,9.5 29.4,10.3 31.199999,11.3 32,13.3L21,13.3C21.7,11.2 23.599999,10.3 25.7,9.5 25.799999,9.5 26,9.3000002 26,9.1000004 26,8.8999996 25.799999,8.6999998 25.7,8.6999998 24.7,8.1999998 23.9,7.1000004 23.9,5.6000004 24,3.8000002 25.099999,2.3999996 26.5,2.3999996z M5.4999995,2.3999996C6.8999996,2.3999996 7.9999995,3.8000002 7.9999995,5.6000004 7.9999995,7 7.2999997,8.1000004 6.2999997,8.6000004 6.1999998,8.6999998 5.9999995,8.8999996 5.9999995,9.1000004 5.9999995,9.3000002 6.1999998,9.5 6.2999997,9.5 8.3999996,10.3 10.2,11.3 11,13.3L0,13.3C0.69999981,11.2 2.5999994,10.3 4.6999998,9.5 4.7999997,9.3999996 4.9999995,9.3000002 4.9999995,9.1000004 4.9999995,8.8999996 4.7999997,8.6999998 4.6999998,8.6999998 3.6999998,8.1999998 2.8999996,7.1000004 2.8999996,5.6000004 2.8999996,3.8000002 4.0999994,2.3999996 5.4999995,2.3999996z M16,0C18.7,0 20.9,2.6999998 20.9,6.1000004 20.9,8.8999996 19.5,10.9 17.5,12 17.3,12.1 16.9,12.5 16.9,12.8 16.9,13.2 17.3,13.5 17.5,13.6 21.599999,15.1 25.099999,17 26.5,21L5.4999995,21C6.8999996,17 10.4,15.2 14.5,13.6 14.7,13.5 15.1,13.2 15.099999,12.8 15.1,12.4 14.8,12.1 14.5,12 12.5,11 11.1,9 11.099999,6.1000004 11.1,2.6999998 13.3,0 16,0z" />
  </g>
</svg>

